<mxfile host="app.diagrams.net" modified="2024-02-15T11:24:51.692Z" agent="Mozilla/5.0 (Windows NT 10.0; Win64; x64) AppleWebKit/537.36 (KHTML, like Gecko) Chrome/121.0.0.0 Safari/537.36" version="23.1.2" etag="uOt5oebRuvW_zmmGrcAi" type="github">
  <diagram name="1 oldal" id="-HYctBSdWcibM3KNvf_V">
    <mxGraphModel>
      <root>
        <mxCell id="0" />
        <mxCell id="1" parent="0" />
      </root>
    </mxGraphModel>
  </diagram>
</mxfile>
